g LowresSphere
v -0.000000 -0.433013 -0.250000
v -0.000000 -0.250000 -0.433013
v 0.000000 -0.000000 -0.500000
v 0.000000 0.250000 -0.433013
v 0.000000 0.433013 -0.250000
v 0.176777 0.433013 -0.176777
v 0.306186 0.250000 -0.306186
v 0.353553 -0.000000 -0.353553
v 0.306186 -0.250000 -0.306186
v 0.176777 -0.433013 -0.176777
v 0.250000 -0.433013 0.000000
v 0.433013 -0.250000 0.000000
v 0.500000 -0.000000 0.000000
v 0.433013 0.250000 0.000000
v 0.250000 0.433013 -0.000000
v 0.176777 0.433013 0.176777
v 0.306186 0.250000 0.306186
v 0.353553 0.000000 0.353553
v 0.306186 -0.250000 0.306186
v 0.176777 -0.433013 0.176777
v -0.000000 -0.433013 0.250000
v -0.000000 -0.250000 0.433013
v -0.000000 0.000000 0.500000
v -0.000000 0.250000 0.433013
v -0.000000 0.433013 0.250000
v -0.000000 0.500000 -0.000000
v -0.176777 0.433013 0.176777
v -0.306186 0.250000 0.306186
v -0.353553 0.000000 0.353553
v -0.306186 -0.250000 0.306186
v -0.176777 -0.433013 0.176777
v -0.000000 -0.500000 0.000000
v -0.250000 -0.433013 -0.000000
v -0.433013 -0.250000 -0.000000
v -0.500000 0.000000 -0.000000
v -0.433013 0.250000 -0.000000
v -0.250000 0.433013 -0.000000
v -0.176777 0.433013 -0.176777
v -0.306186 0.250000 -0.306186
v -0.353553 0.000000 -0.353554
v -0.306186 -0.250000 -0.306186
v -0.176777 -0.433013 -0.176777
vn 0.106595 0.960422 -0.257344
vn 0.281085 0.678598 -0.678599
vn 0.371470 0.240299 -0.896809
vn 0.371470 -0.240299 -0.896809
vn 0.281085 -0.678598 -0.678598
vn 0.106595 -0.960422 -0.257344
vn 0.257344 -0.960422 -0.106595
vn 0.678598 -0.678598 -0.281085
vn 0.896809 -0.240299 -0.371470
vn 0.896809 0.240299 -0.371470
vn 0.678599 0.678598 -0.281085
vn 0.257344 0.960423 -0.106595
vn 0.257344 0.960423 0.106595
vn 0.678599 0.678598 0.281085
vn 0.896809 0.240299 0.371470
vn 0.896809 -0.240299 0.371470
vn 0.678598 -0.678599 0.281085
vn 0.257344 -0.960422 0.106596
vn 0.106596 -0.960422 0.257344
vn 0.281085 -0.678598 0.678598
vn 0.371470 -0.240299 0.896809
vn 0.371470 0.240299 0.896809
vn 0.281085 0.678598 0.678598
vn 0.106595 0.960422 0.257344
vn -0.106596 0.960422 0.257344
vn -0.281085 0.678598 0.678598
vn -0.371471 0.240299 0.896809
vn -0.371471 -0.240299 0.896809
vn -0.281085 -0.678598 0.678598
vn -0.106596 -0.960422 0.257344
vn -0.257344 -0.960422 0.106596
vn -0.678598 -0.678599 0.281085
vn -0.896809 -0.240299 0.371470
vn -0.896809 0.240299 0.371470
vn -0.678598 0.678598 0.281084
vn -0.257344 0.960422 0.106595
vn -0.257344 0.960423 -0.106596
vn -0.678598 0.678598 -0.281085
vn -0.896809 0.240299 -0.371471
vn -0.896809 -0.240299 -0.371471
vn -0.678598 -0.678598 -0.281085
vn -0.257344 -0.960422 -0.106595
vn -0.106595 -0.960422 -0.257344
vn -0.281084 -0.678598 -0.678598
vn -0.371470 -0.240299 -0.896809
vn -0.371470 0.240299 -0.896809
vn -0.281084 0.678598 -0.678599
vn -0.106595 0.960422 -0.257344
vt 0.000000 0.000000
usemtl (null)
s off
f 26/1/1 6/1/1 5/1/1
f 5/1/2 6/1/2 7/1/2 4/1/2
f 4/1/3 7/1/3 8/1/3 3/1/3
f 3/1/4 8/1/4 9/1/4 2/1/4
f 10/1/5 1/1/5 2/1/5 9/1/5
f 1/1/6 10/1/6 32/1/6
f 10/1/7 11/1/7 32/1/7
f 9/1/8 12/1/8 11/1/8 10/1/8
f 8/1/9 13/1/9 12/1/9 9/1/9
f 7/1/10 14/1/10 13/1/10 8/1/10
f 6/1/11 15/1/11 14/1/11 7/1/11
f 26/1/12 15/1/12 6/1/12
f 26/1/13 16/1/13 15/1/13
f 15/1/14 16/1/14 17/1/14 14/1/14
f 14/1/15 17/1/15 18/1/15 13/1/15
f 13/1/16 18/1/16 19/1/16 12/1/16
f 12/1/17 19/1/17 20/1/17 11/1/17
f 11/1/18 20/1/18 32/1/18
f 20/1/19 21/1/19 32/1/19
f 19/1/20 22/1/20 21/1/20 20/1/20
f 18/1/21 23/1/21 22/1/21 19/1/21
f 17/1/22 24/1/22 23/1/22 18/1/22
f 16/1/23 25/1/23 24/1/23 17/1/23
f 26/1/24 25/1/24 16/1/24
f 26/1/25 27/1/25 25/1/25
f 25/1/26 27/1/26 28/1/26 24/1/26
f 24/1/27 28/1/27 29/1/27 23/1/27
f 23/1/28 29/1/28 30/1/28 22/1/28
f 22/1/29 30/1/29 31/1/29 21/1/29
f 21/1/30 31/1/30 32/1/30
f 31/1/31 33/1/31 32/1/31
f 30/1/32 34/1/32 33/1/32 31/1/32
f 29/1/33 35/1/33 34/1/33 30/1/33
f 28/1/34 36/1/34 35/1/34 29/1/34
f 27/1/35 37/1/35 36/1/35 28/1/35
f 26/1/36 37/1/36 27/1/36
f 26/1/37 38/1/37 37/1/37
f 37/1/38 38/1/38 39/1/38 36/1/38
f 36/1/39 39/1/39 40/1/39 35/1/39
f 35/1/40 40/1/40 41/1/40 34/1/40
f 34/1/41 41/1/41 42/1/41 33/1/41
f 33/1/42 42/1/42 32/1/42
f 42/1/43 1/1/43 32/1/43
f 1/1/44 42/1/44 41/1/44 2/1/44
f 40/1/45 3/1/45 2/1/45 41/1/45
f 39/1/46 4/1/46 3/1/46 40/1/46
f 38/1/47 5/1/47 4/1/47 39/1/47
f 26/1/48 5/1/48 38/1/48
