g Room
v 0.500000 0.500000 -0.500000
v 0.500000 -0.500000 -0.500000
v -0.500000 -0.500000 -0.500000
v -0.500000 0.500000 -0.500000
v 0.500000 0.500000 0.500000
v 0.500000 -0.500000 0.500000
v -0.500000 -0.500000 0.500000
v -0.500000 0.500000 0.500000
v -0.500000 0.500000 0.500000
v 0.500000 0.500000 0.500000
v -0.500000 0.500000 -0.500000
v 0.500000 0.500000 -0.500000
v -0.500000 -0.500000 0.500000
v 0.500000 -0.500000 0.500000
v -0.500000 -0.500000 -0.500000
v 0.500000 -0.500000 -0.500000
v 0.500000 -0.500000 0.500000
v 0.500000 0.500000 0.500000
v 0.500000 -0.500000 -0.500000
v 0.500000 0.500000 -0.500000
v -0.500000 0.500000 0.500000
v -0.500000 -0.500000 0.500000
v -0.500000 0.500000 -0.500000
v -0.500000 -0.500000 -0.500000
vt 0.500000 -1.500000
vt 0.500000 0.499999
vt -1.500000 0.500000
vt -1.500000 -1.500000
vt 0.500000 -1.500001
vt -1.499999 0.500000
vt 0.500000 0.500000
vt 2.500000 0.500000
vt 2.500000 2.500000
vt 0.500000 2.500000
vt -1.500000 2.500000
vt 0.499999 2.500000
vt -1.500001 2.500000
vn 0.000000 0.000000 1.000000
vn 0.000000 -0.000000 -1.000000
vn 0.000000 -1.000000 0.000000
vn 0.000000 1.000000 -0.000000
vn -1.000000 0.000000 0.000000
vn 1.000000 0.000000 0.000000
usemtl (null)
s off
f 1/1/1 4/2/1 3/3/1 2/4/1
f 5/5/2 6/4/2 7/6/2 8/2/2
f 11/7/3 12/8/3 10/9/3 9/10/3
f 16/7/4 15/3/4 13/11/4 14/12/4
f 20/7/5 19/3/5 17/13/5 18/12/5
f 24/7/6 23/8/6 21/9/6 22/10/6
